<svg width="234" height="46" viewBox="0 0 117 23" fill="none" xmlns="http://www.w3.org/2000/svg">
<path d="M5.83984 11.6621C4.23177 11.1999 3.0599 10.6335 2.32422 9.96289C1.59505 9.28581 1.23047 8.45247 1.23047 7.46289C1.23047 6.3431 1.67643 5.41862 2.56836 4.68945C3.4668 3.95378 4.63216 3.58594 6.06445 3.58594C7.04102 3.58594 7.91016 3.77474 8.67188 4.15234C9.4401 4.52995 10.0326 5.05078 10.4492 5.71484C10.8724 6.37891 11.084 7.10482 11.084 7.89258H9.19922C9.19922 7.0332 8.92578 6.35938 8.37891 5.87109C7.83203 5.3763 7.06055 5.12891 6.06445 5.12891C5.13997 5.12891 4.41732 5.33398 3.89648 5.74414C3.38216 6.14779 3.125 6.71094 3.125 7.43359C3.125 8.01302 3.36914 8.50456 3.85742 8.9082C4.35221 9.30534 5.1888 9.66992 6.36719 10.002C7.55208 10.334 8.47656 10.7018 9.14062 11.1055C9.8112 11.5026 10.306 11.9681 10.625 12.502C10.9505 13.0358 11.1133 13.6641 11.1133 14.3867C11.1133 15.5391 10.6641 16.4635 9.76562 17.1602C8.86719 17.8503 7.66602 18.1953 6.16211 18.1953C5.18555 18.1953 4.27409 18.0098 3.42773 17.6387C2.58138 17.2611 1.92708 16.7467 1.46484 16.0957C1.00911 15.4447 0.78125 14.7057 0.78125 13.8789H2.66602C2.66602 14.7383 2.98177 15.4186 3.61328 15.9199C4.2513 16.4147 5.10091 16.6621 6.16211 16.6621C7.15169 16.6621 7.91016 16.4603 8.4375 16.0566C8.96484 15.653 9.22852 15.1029 9.22852 14.4062C9.22852 13.7096 8.98438 13.1725 8.49609 12.7949C8.00781 12.4108 7.1224 12.0332 5.83984 11.6621Z" fill="#115D8C"/>
<path d="M24.6602 3.78125V13.4492C24.6536 14.7904 24.2305 15.8874 23.3906 16.7402C22.5573 17.5931 21.4245 18.0716 19.9922 18.1758L19.4941 18.1953C17.9382 18.1953 16.6979 17.7754 15.7734 16.9355C14.849 16.0957 14.3802 14.9401 14.3672 13.4688V3.78125H16.2227V13.4102C16.2227 14.4388 16.5059 15.2396 17.0723 15.8125C17.6387 16.3789 18.446 16.6621 19.4941 16.6621C20.5553 16.6621 21.3659 16.3789 21.9258 15.8125C22.4922 15.2461 22.7754 14.4486 22.7754 13.4199V3.78125H24.6602Z" fill="#115D8C"/>
<path d="M35.9062 17H29.9575C28.7294 17 27.9999 15.5847 28.6057 14.5163C31.6093 9.2194 31.734 4.59494 32.383 4.03315C33.0349 3.46881 35.6255 10.2318 37.3149 15.0225C37.6566 15.9915 36.9336 17 35.9062 17Z" stroke="#F25D27" stroke-width="2"/>
<path d="M68.9062 18H62.9575C61.7294 18 60.9999 16.5847 61.6057 15.5163C64.6093 10.2194 64.734 5.59494 65.383 5.03315C66.0349 4.46881 68.6255 11.2318 70.3149 16.0225C70.6566 16.9915 69.9336 18 68.9062 18Z" stroke="#F25D27" stroke-width="2"/>
<path d="M56.6621 18H54.7871V3.78125H56.6621V18Z" fill="#115D8C"/>
<path d="M84.1484 16.1348C83.6667 16.8249 82.9928 17.3424 82.127 17.6875C81.2676 18.026 80.265 18.1953 79.1191 18.1953C77.9603 18.1953 76.9316 17.9251 76.0332 17.3848C75.1348 16.8379 74.4382 16.0632 73.9434 15.0605C73.4551 14.0579 73.2044 12.8958 73.1914 11.5742V10.334C73.1914 8.19206 73.6895 6.5319 74.6855 5.35352C75.6882 4.17513 77.0944 3.58594 78.9043 3.58594C80.3887 3.58594 81.5833 3.9668 82.4883 4.72852C83.3932 5.48372 83.9466 6.55794 84.1484 7.95117H82.2734C81.9219 6.06966 80.8021 5.12891 78.9141 5.12891C77.6576 5.12891 76.7038 5.57161 76.0527 6.45703C75.4082 7.33594 75.0827 8.61198 75.0762 10.2852V11.4473C75.0762 13.0423 75.4408 14.3118 76.1699 15.2559C76.8991 16.1934 77.8854 16.6621 79.1289 16.6621C79.832 16.6621 80.4473 16.584 80.9746 16.4277C81.502 16.2715 81.9382 16.0078 82.2832 15.6367V12.4434H78.9922V10.9199H84.1484V16.1348Z" fill="#115D8C"/>
<path d="M96.6875 11.4277H90.5254V16.4668H97.6836V18H88.6504V3.78125H97.5859V5.32422H90.5254V9.89453H96.6875V11.4277Z" fill="#115D8C"/>
<path d="M103.072 3.78125L107.721 15.3828L112.369 3.78125H114.801V18H112.926V12.4629L113.102 6.48633L108.434 18H106.998L102.34 6.51562L102.525 12.4629V18H100.65V3.78125H103.072Z" fill="#115D8C"/>
<path d="M50.0338 8.08366C47.9111 12.4179 45.0856 17.4736 44.5045 17.9538C44.069 18.3138 43.9762 16.5604 42.2712 12.9919C41.471 11.3172 40.4216 8.95222 39.5312 6.83964C38.9867 5.54772 40.3539 4.38825 41.5615 5.10045L45.2476 7.27434C45.7482 7.56959 46.3743 7.54907 46.8546 7.22168L48.039 6.41415C49.2535 5.58619 50.6803 6.76365 50.0338 8.08366Z" stroke="#F25D27" stroke-width="2"/>
</svg>
