<svg width="324" height="100%" viewBox="0 0 162 67" fill="none" xmlns="http://www.w3.org/2000/svg">
<path d="M11.6797 16.3242C8.46354 15.3997 6.11979 14.2669 4.64844 12.9258C3.1901 11.5716 2.46094 9.90495 2.46094 7.92578C2.46094 5.6862 3.35286 3.83724 5.13672 2.37891C6.93359 0.907552 9.26432 0.171875 12.1289 0.171875C14.082 0.171875 15.8203 0.549479 17.3438 1.30469C18.8802 2.0599 20.0651 3.10156 20.8984 4.42969C21.7448 5.75781 22.168 7.20964 22.168 8.78516H18.3984C18.3984 7.06641 17.8516 5.71875 16.7578 4.74219C15.6641 3.7526 14.1211 3.25781 12.1289 3.25781C10.2799 3.25781 8.83464 3.66797 7.79297 4.48828C6.76432 5.29557 6.25 6.42188 6.25 7.86719C6.25 9.02604 6.73828 10.0091 7.71484 10.8164C8.70443 11.6107 10.3776 12.3398 12.7344 13.0039C15.1042 13.668 16.9531 14.4036 18.2812 15.2109C19.6224 16.0052 20.612 16.9362 21.25 18.0039C21.901 19.0716 22.2266 20.3281 22.2266 21.7734C22.2266 24.0781 21.3281 25.9271 19.5312 27.3203C17.7344 28.7005 15.332 29.3906 12.3242 29.3906C10.3711 29.3906 8.54818 29.0195 6.85547 28.2773C5.16276 27.5221 3.85417 26.4935 2.92969 25.1914C2.01823 23.8893 1.5625 22.4115 1.5625 20.7578H5.33203C5.33203 22.4766 5.96354 23.8372 7.22656 24.8398C8.5026 25.8294 10.2018 26.3242 12.3242 26.3242C14.3034 26.3242 15.8203 25.9206 16.875 25.1133C17.9297 24.306 18.457 23.2057 18.457 21.8125C18.457 20.4193 17.9688 19.3451 16.9922 18.5898C16.0156 17.8216 14.2448 17.0664 11.6797 16.3242Z" fill="#115D8C"/>
<path d="M40.3242 65H36.5742V36.5625H40.3242V65Z" fill="#115D8C"/>
<path d="M96.2969 60.2695C95.3333 61.6497 93.9857 62.6849 92.2539 63.375C90.5352 64.0521 88.5299 64.3906 86.2383 64.3906C83.9206 64.3906 81.8633 63.8503 80.0664 62.7695C78.2695 61.6758 76.8763 60.1263 75.8867 58.1211C74.9102 56.1159 74.4089 53.7917 74.3828 51.1484V48.668C74.3828 44.3841 75.3789 41.0638 77.3711 38.707C79.3763 36.3503 82.1888 35.1719 85.8086 35.1719C88.7773 35.1719 91.1667 35.9336 92.9766 37.457C94.7865 38.9674 95.8932 41.1159 96.2969 43.9023H92.5469C91.8438 40.1393 89.6042 38.2578 85.8281 38.2578C83.3151 38.2578 81.4076 39.1432 80.1055 40.9141C78.8164 42.6719 78.1654 45.224 78.1523 48.5703V50.8945C78.1523 54.0846 78.8815 56.6237 80.3398 58.5117C81.7982 60.3867 83.7708 61.3242 86.2578 61.3242C87.6641 61.3242 88.8945 61.168 89.9492 60.8555C91.0039 60.543 91.8763 60.0156 92.5664 59.2734V52.8867H85.9844V49.8398H96.2969V60.2695Z" fill="#115D8C"/>
<path d="M121.375 50.8555H109.051V60.9336H123.367V64H105.301V35.5625H123.172V38.6484H109.051V47.7891H121.375V50.8555Z" fill="#115D8C"/>
<path d="M135.145 36.5625L144.441 59.7656L153.738 36.5625H158.602V65H154.852V53.9258L155.203 41.9727L145.867 65H142.996L133.68 42.0312L134.051 53.9258V65H130.301V36.5625H135.145Z" fill="#115D8C"/>
<path d="M49.3203 0.5625V19.8984C49.3073 22.5807 48.4609 24.7747 46.7812 26.4805C45.1146 28.1862 42.849 29.1432 39.9844 29.3516L38.9883 29.3906C35.8763 29.3906 33.3958 28.5508 31.5469 26.8711C29.6979 25.1914 28.7604 22.8802 28.7344 19.9375V0.5625H32.4453V19.8203C32.4453 21.8776 33.0117 23.4792 34.1445 24.625C35.2773 25.7578 36.8919 26.3242 38.9883 26.3242C41.1107 26.3242 42.7318 25.7578 43.8516 24.625C44.9844 23.4922 45.5508 21.8971 45.5508 19.8398V0.5625H49.3203Z" fill="#115D8C"/>
<path d="M75.872 29H57.0463C55.8018 29 55.0866 27.5613 55.7872 26.5328C64.0202 14.448 64.2143 3.32995 65.7447 2.06885C67.2709 0.811141 73.6677 17.0764 77.279 27.0002C77.6337 27.9748 76.9091 29 75.872 29Z" stroke="#F25D27" stroke-width="3"/>
<path d="M67.872 64H49.0463C47.8018 64 47.0866 62.5613 47.7872 61.5328C56.0202 49.448 56.2143 38.33 57.7447 37.0688C59.2709 35.8111 65.6677 52.0764 69.279 62.0002C69.6337 62.9748 68.9091 64 67.872 64Z" stroke="#F25D27" stroke-width="3"/>
<path d="M28.6264 38.9025C24.2222 48.5811 16.1545 63.2343 14.7059 64.4284C13.7882 65.1848 13.5928 61.4997 10 53.9998C7.74827 49.2993 4.55987 42.011 2.48357 36.8546C1.95999 35.5543 3.35395 34.3844 4.56217 35.0952L17.1814 42.5183C17.6812 42.8123 18.3058 42.7919 18.7854 42.4658L26.5381 37.1939C27.7534 36.3675 29.2351 37.5649 28.6264 38.9025Z" stroke="#F25D27" stroke-width="3"/>
</svg>
