<svg width="210" height="84" viewBox="0 0 210 84" fill="none" xmlns="http://www.w3.org/2000/svg">
<path d="M30.6797 25.3242C27.4635 24.3997 25.1198 23.2669 23.6484 21.9258C22.1901 20.5716 21.4609 18.9049 21.4609 16.9258C21.4609 14.6862 22.3529 12.8372 24.1367 11.3789C25.9336 9.90755 28.2643 9.17188 31.1289 9.17188C33.082 9.17188 34.8203 9.54948 36.3438 10.3047C37.8802 11.0599 39.0651 12.1016 39.8984 13.4297C40.7448 14.7578 41.168 16.2096 41.168 17.7852H37.3984C37.3984 16.0664 36.8516 14.7188 35.7578 13.7422C34.6641 12.7526 33.1211 12.2578 31.1289 12.2578C29.2799 12.2578 27.8346 12.668 26.793 13.4883C25.7643 14.2956 25.25 15.4219 25.25 16.8672C25.25 18.026 25.7383 19.0091 26.7148 19.8164C27.7044 20.6107 29.3776 21.3398 31.7344 22.0039C34.1042 22.668 35.9531 23.4036 37.2812 24.2109C38.6224 25.0052 39.612 25.9362 40.25 27.0039C40.901 28.0716 41.2266 29.3281 41.2266 30.7734C41.2266 33.0781 40.3281 34.9271 38.5312 36.3203C36.7344 37.7005 34.332 38.3906 31.3242 38.3906C29.3711 38.3906 27.5482 38.0195 25.8555 37.2773C24.1628 36.5221 22.8542 35.4935 21.9297 34.1914C21.0182 32.8893 20.5625 31.4115 20.5625 29.7578H24.332C24.332 31.4766 24.9635 32.8372 26.2266 33.8398C27.5026 34.8294 29.2018 35.3242 31.3242 35.3242C33.3034 35.3242 34.8203 34.9206 35.875 34.1133C36.9297 33.306 37.457 32.2057 37.457 30.8125C37.457 29.4193 36.9688 28.3451 35.9922 27.5898C35.0156 26.8216 33.2448 26.0664 30.6797 25.3242Z" fill="#115D8C"/>
<path d="M59.3242 74H55.5742V45.5625H59.3242V74Z" fill="#115D8C"/>
<path d="M115.297 69.2695C114.333 70.6497 112.986 71.6849 111.254 72.375C109.535 73.0521 107.53 73.3906 105.238 73.3906C102.921 73.3906 100.863 72.8503 99.0664 71.7695C97.2695 70.6758 95.8763 69.1263 94.8867 67.1211C93.9102 65.1159 93.4089 62.7917 93.3828 60.1484V57.668C93.3828 53.3841 94.3789 50.0638 96.3711 47.707C98.3763 45.3503 101.189 44.1719 104.809 44.1719C107.777 44.1719 110.167 44.9336 111.977 46.457C113.786 47.9674 114.893 50.1159 115.297 52.9023H111.547C110.844 49.1393 108.604 47.2578 104.828 47.2578C102.315 47.2578 100.408 48.1432 99.1055 49.9141C97.8164 51.6719 97.1654 54.224 97.1523 57.5703V59.8945C97.1523 63.0846 97.8815 65.6237 99.3398 67.5117C100.798 69.3867 102.771 70.3242 105.258 70.3242C106.664 70.3242 107.895 70.168 108.949 69.8555C110.004 69.543 110.876 69.0156 111.566 68.2734V61.8867H104.984V58.8398H115.297V69.2695Z" fill="#115D8C"/>
<path d="M140.375 59.8555H128.051V69.9336H142.367V73H124.301V44.5625H142.172V47.6484H128.051V56.7891H140.375V59.8555Z" fill="#115D8C"/>
<path d="M154.145 45.5625L163.441 68.7656L172.738 45.5625H177.602V74H173.852V62.9258L174.203 50.9727L164.867 74H161.996L152.68 51.0312L153.051 62.9258V74H149.301V45.5625H154.145Z" fill="#115D8C"/>
<path d="M68.3203 9.5625V28.8984C68.3073 31.5807 67.4609 33.7747 65.7812 35.4805C64.1146 37.1862 61.849 38.1432 58.9844 38.3516L57.9883 38.3906C54.8763 38.3906 52.3958 37.5508 50.5469 35.8711C48.6979 34.1914 47.7604 31.8802 47.7344 28.9375V9.5625H51.4453V28.8203C51.4453 30.8776 52.0117 32.4792 53.1445 33.625C54.2773 34.7578 55.8919 35.3242 57.9883 35.3242C60.1107 35.3242 61.7318 34.7578 62.8516 33.625C63.9844 32.4922 64.5508 30.8971 64.5508 28.8398V9.5625H68.3203Z" fill="#115D8C"/>
<path d="M0 1C113.323 1 187.218 1 210 1" stroke="#115D8C" stroke-width="2"/>
<path d="M0 83C113.323 83 187.218 83 210 83" stroke="#115D8C" stroke-width="2"/>
<path d="M94.872 38H76.0463C74.8018 38 74.0866 36.5613 74.7872 35.5328C83.0202 23.448 83.2143 12.33 84.7447 11.0688C86.2709 9.81114 92.6677 26.0764 96.279 36.0002C96.6337 36.9748 95.9091 38 94.872 38Z" stroke="#F25D27" stroke-width="3"/>
<path d="M86.872 73H68.0463C66.8018 73 66.0866 71.5613 66.7872 70.5328C75.0202 58.448 75.2143 47.33 76.7447 46.0688C78.2709 44.8111 84.6677 61.0764 88.279 71.0002C88.6337 71.9748 87.9091 73 86.872 73Z" stroke="#F25D27" stroke-width="3"/>
<path d="M47.6264 47.9025C43.2222 57.5811 35.1545 72.2343 33.7059 73.4284C32.7882 74.1848 32.5928 70.4997 29 62.9998C26.7483 58.2993 23.5599 51.011 21.4836 45.8546C20.96 44.5543 22.354 43.3844 23.5622 44.0952L36.1814 51.5183C36.6812 51.8123 37.3058 51.7919 37.7854 51.4658L45.5381 46.1939C46.7534 45.3675 48.2351 46.5649 47.6264 47.9025Z" stroke="#F25D27" stroke-width="3"/>
<circle cx="2.5" cy="46.5" r="2.5" fill="#F25D27"/>
<circle cx="202.5" cy="46.5" r="2.5" fill="#F25D27"/>
</svg>
